<svg width="46" height="56" viewBox="0 0 46 56" fill="none" xmlns="http://www.w3.org/2000/svg">
<g id="drop/Variant2">
<path id="Vector" d="M21.2489 0.821823C20.9143 1.24511 18.1257 4.98 15.0583 9.08837C12.0187 13.1967 8.7561 17.5541 7.83588 18.7493C6.88776 19.9444 6.13485 20.9902 6.13485 21.04C6.13485 21.0898 5.74445 21.6376 5.29828 22.2601C2.00777 26.5925 0 31.7467 0 35.8052C0 41.2831 2.50971 46.5617 6.88776 50.2966C9.78787 52.7865 11.2658 53.6082 15.3371 55.0025C19.1017 56.2724 25.4317 56.3471 29.4473 55.127C33.5465 53.907 35.9168 52.5873 38.8726 49.9231C41.7727 47.3087 43.5853 44.1963 44.8959 39.7144C45.2306 38.4944 45.2585 33.4647 44.9238 32.4687C44.7844 32.0704 44.394 30.9001 44.0594 29.8792C43.3901 27.8873 41.6054 24.6006 40.0159 22.4593C39.4861 21.7123 39.0399 21.0898 39.0399 21.04C39.0399 20.8906 36.1956 17.2055 31.957 11.8522C31.5108 11.3044 29.754 8.98877 28.0809 6.72294C22.9778 -0.124344 23.0893 0.000148773 22.4759 0.000148773C22.1412 0.000148773 21.6114 0.34874 21.2489 0.821823ZM24.0096 15.363C24.4 15.7365 24.9577 16.3589 25.2644 16.7075C25.5433 17.081 26.7424 18.4754 27.9136 19.8199C31.7339 24.3018 34.1321 28.0118 35.4427 31.4977C35.9725 32.892 36.112 33.7635 36.112 35.9795C36.112 38.4197 36.0283 38.9176 35.3312 40.4365C33.7974 43.773 31.9849 45.491 28.2482 47.1095C26.2962 47.9561 25.5991 48.1304 23.5913 48.2299C17.9026 48.5536 12.7716 45.9392 10.2898 41.4574C9.17439 39.4156 9.06285 38.8927 9.06285 35.7305C9.06285 32.6679 9.56479 30.9001 11.3495 27.7628C13.3015 24.3018 18.042 18.3011 21.1652 15.3879C22.5316 14.0931 22.7268 14.0931 24.0096 15.363Z" fill="#173C1D"/>
<path id="Vector_2" d="M23.8864 30.3612C23.6171 30.689 22.8989 31.5462 22.2406 32.2775C21.6122 33.0087 20.5948 34.4711 19.9963 35.5049C18.9789 37.2447 18.8891 37.5221 19.0088 39.2367C19.1285 41.4808 20.0562 42.8676 22.0311 43.6996C23.4675 44.33 26.1307 44.4561 27.3277 43.9266C29.6319 42.9432 30.739 41.3799 30.7091 39.1358C30.7091 37.7742 30.5296 37.1691 29.7216 35.8075C28.6444 33.9668 25.1133 29.8064 24.6645 29.8064C24.4849 29.8064 24.1558 30.0586 23.8864 30.3612Z" fill="#F9AD26"/>
</g>
</svg>
